<?xml version="1.0" encoding="utf-8"?>
<svg version="1.1" id="Layer_1" xmlns="http://www.w3.org/2000/svg" xmlns:xlink="http://www.w3.org/1999/xlink" x="0px" y="0px"
	 width="566.93px" height="243.471px" viewBox="0 0 566.93 243.471" enable-background="new 0 0 566.93 243.471"
	 xml:space="preserve">
<g>
	<path fill="#4d5f75" d="M13.799,204.915h7.748v37.156h-7.748V204.915L13.799,204.915z M393.609,204.915h7.748v37.156h-7.748
		V204.915L393.609,204.915z M392.439,194.536c0-1.476,0.549-2.767,1.643-3.849c1.096-1.081,2.402-1.628,3.918-1.628
		c1.475,0,2.754,0.547,3.848,1.628c1.082,1.082,1.615,2.373,1.615,3.849c0,1.502-0.533,2.795-1.615,3.861
		c-1.094,1.081-2.373,1.614-3.848,1.614c-1.516,0-2.822-0.533-3.918-1.614C392.988,197.331,392.439,196.038,392.439,194.536
		L392.439,194.536z M527.15,204.915h7.842v37.156h-7.842v-7.379c-3.811,5.611-8.547,8.409-14.188,8.409
		c-4.889,0-9.07-1.922-12.545-5.766c-3.459-3.843-5.195-8.501-5.195-14.004c0-5.196,1.752-9.731,5.242-13.62
		c3.504-3.89,7.609-5.826,12.313-5.826c2.922,0,5.689,0.784,8.287,2.382c2.613,1.584,4.643,3.659,6.086,6.211V204.915
		L527.15,204.915z M528.182,223.608c0-3.397-1.215-6.303-3.645-8.716c-2.428-2.414-5.35-3.629-8.73-3.629
		c-3.305,0-6.195,1.199-8.656,3.598c-2.459,2.414-3.689,5.227-3.689,8.471c0,3.52,1.201,6.503,3.598,8.962
		c2.414,2.46,5.32,3.689,8.748,3.689c3.381,0,6.303-1.214,8.73-3.658C526.967,229.88,528.182,226.975,528.182,223.608
		L528.182,223.608z M433.139,204.915h8.193l10.623,21.476l10.314-21.476h8.287l-18.725,38.556L433.139,204.915L433.139,204.915z
		 M348.4,194.108h7.84v10.807h7.748v7.164h-7.748v29.992h-7.84v-29.992h-6.164v-7.256h6.164V194.108L348.4,194.108z
		 M304.764,204.915h7.84v37.156h-7.84v-7.379c-3.813,5.611-8.549,8.409-14.189,8.409c-4.889,0-9.07-1.922-12.544-5.766
		c-3.459-3.843-5.196-8.501-5.196-14.004c0-5.196,1.752-9.731,5.242-13.62c3.504-3.89,7.609-5.826,12.314-5.826
		c2.92,0,5.688,0.784,8.285,2.382c2.613,1.584,4.643,3.659,6.088,6.211V204.915L304.764,204.915z M305.793,223.608
		c0-3.397-1.215-6.303-3.643-8.716c-2.43-2.414-5.35-3.629-8.732-3.629c-3.305,0-6.195,1.199-8.654,3.598
		c-2.46,2.414-3.69,5.227-3.69,8.471c0,3.52,1.199,6.503,3.596,8.962c2.414,2.46,5.32,3.689,8.748,3.689
		c3.383,0,6.303-1.214,8.732-3.658C304.578,229.88,305.793,226.975,305.793,223.608L305.793,223.608z M235.56,204.915v7.655l0,0
		c1.752-3.059,3.443-5.272,5.119-6.641c1.661-1.368,3.828-2.044,6.503-2.044c0.753,0,1.829,0.168,3.243,0.537l-2.382,7.841
		c-1.506-0.308-2.491-0.461-2.982-0.461c-2.629,0-4.843,0.922-6.641,2.767c-1.783,1.86-2.675,4.15-2.675,6.918v20.584h-7.84v-37.156
		H235.56L235.56,204.915z M199.928,225.007h-31.714c0.692,3.813,2.26,6.596,4.719,8.348c2.444,1.753,5.104,2.629,7.994,2.629
		c4.443,0,8.163-1.845,11.161-5.534l5.719,4.32c-4.289,5.564-10.039,8.332-17.249,8.332c-5.519,0-10.146-1.892-13.866-5.673
		c-3.72-3.782-5.581-8.485-5.581-14.097c0-5.258,1.875-9.809,5.642-13.666c3.767-3.859,8.378-5.78,13.805-5.78
		c5.35,0,9.931,1.952,13.743,5.872C198.115,213.678,199.99,218.751,199.928,225.007L199.928,225.007z M169.029,218.735h22.705
		c-2.521-5.104-6.256-7.655-11.176-7.655C175.193,211.08,171.35,213.632,169.029,218.735L169.029,218.735z M120.603,194.108h7.84
		v10.807h7.748v7.164h-7.748v29.992h-7.84v-29.992h-6.165v-7.256h6.165V194.108L120.603,194.108z M53.922,242.071v-37.156h7.655
		v6.165c2.26-2.491,4.289-4.305,6.134-5.473c1.829-1.153,3.874-1.722,6.119-1.722c3.367,0,6.241,1.106,8.624,3.32
		c2.383,2.229,3.582,4.904,3.582,8.024v26.841h-7.84v-24.551c0-2.014-0.646-3.674-1.952-4.996c-1.307-1.322-2.967-1.983-4.981-1.983
		c-2.613,0-4.857,1.107-6.749,3.321c-1.891,2.198-2.844,4.857-2.844,7.994v20.215H53.922L53.922,242.071z M12.63,194.536
		c0-1.476,0.547-2.767,1.642-3.849c1.095-1.081,2.402-1.628,3.918-1.628c1.475,0,2.753,0.547,3.848,1.628
		c1.082,1.082,1.615,2.373,1.615,3.849c0,1.502-0.534,2.795-1.615,3.861c-1.095,1.081-2.373,1.614-3.848,1.614
		c-1.516,0-2.823-0.533-3.918-1.614C13.177,197.331,12.63,196.038,12.63,194.536L12.63,194.536z"/>
	<path fill="#da194c" d="M156.444,143.261v-32.02c-14.543,4.563-24.599,8.802-30.088,12.638c-5.529,3.877-8.293,8.358-8.293,13.486
		c0,4.482,1.442,7.955,4.287,10.377c2.845,2.463,6.851,3.675,12.019,3.675c3.846,0,7.612-0.687,11.258-2.059
		C149.313,147.944,152.918,145.926,156.444,143.261L156.444,143.261z M30.011,25.985c-1.267,7.741-2.45,15.502-3.645,23.259H3.364
		L0,74.685h22.284c-1.922,11.172-4.082,22.292-6.759,33.301c-1.463,6.02-2.256,11.859-2.819,18.045
		c-1.802,19.817,5.056,33.627,18.228,39.125c10.914,4.556,27.91,3.804,44.412-4.759c0-9.78,0-20.011,0-29.79
		c-7.073,3.14-22.506,11.646-27.227,1.338c-1.836-4.009-1.401-10.057,0.078-17.474c2.265-13.208,4.399-26.49,6.507-39.786H80.12
		l3.363-25.441H58.73c1.237-7.765,2.488-15.522,3.775-23.259H30.011L30.011,25.985z M497.395,143.261v-32.02
		c-14.543,4.563-24.6,8.802-30.088,12.638c-5.529,3.877-8.293,8.358-8.293,13.486c0,4.482,1.441,7.955,4.285,10.377
		c2.846,2.463,6.852,3.675,12.02,3.675c3.846,0,7.613-0.687,11.258-2.059C490.262,147.944,493.867,145.926,497.395,143.261
		L497.395,143.261z M498.234,156.504c-5.488,3.877-10.695,6.663-15.584,8.359c-4.889,1.695-10.137,2.543-15.785,2.543
		c-9.695,0-17.268-2.342-22.756-7.025s-8.213-11.144-8.213-19.341c0-7.712,2.965-14.496,8.934-20.351
		c5.93-5.814,14.904-10.74,26.844-14.778l25.721-8.641c0.08-0.646,0.119-1.252,0.16-1.898c0.039-0.646,0.08-1.535,0.08-2.705
		c0-6.582-1.604-11.306-4.768-14.173c-3.166-2.866-8.373-4.32-15.666-4.32c-6.01,0-12.219,1.292-18.67,3.836
		c-6.41,2.584-12.82,6.379-19.23,11.427V67.916c5.57-4.603,11.779-8.035,18.67-10.377c6.891-2.301,14.184-3.472,21.955-3.472
		c13.902,0,24.039,3.108,30.408,9.287c6.33,6.178,9.496,16.191,9.496,30.001v46.232c0,3.877,0.32,6.623,1,8.237
		c0.682,1.615,1.764,2.423,3.367,2.423c1.32,0,2.684-0.363,4.166-1.05c1.441-0.727,3.805-2.382,7.092-5.007v13.284
		c-3.928,3.392-7.854,5.896-11.859,7.511c-4.008,1.615-8.133,2.422-12.461,2.422c-4.166,0-7.25-0.888-9.334-2.624
		S498.516,160.301,498.234,156.504L498.234,156.504z M395.457,141.242V79.747c-3.527-2.544-7.133-4.401-10.818-5.653
		c-3.646-1.211-7.611-1.817-11.818-1.817c-11.059,0-19.752,3.392-26.082,10.175s-9.494,16.151-9.494,28.063
		c0,11.911,3.164,21.278,9.494,28.103s15.023,10.216,26.082,10.216c4.207,0,8.172-0.605,11.818-1.817
		C388.324,145.764,391.93,143.866,395.457,141.242L395.457,141.242z M395.457,159.492c-4.008,2.746-8.295,4.806-12.861,6.138
		c-4.568,1.333-9.656,2.019-15.305,2.019c-15.664,0-28.406-5.289-38.301-15.868c-9.896-10.538-14.863-24.227-14.863-41.064
		c0-16.797,4.967-30.486,14.863-41.024c9.895-10.579,22.637-15.868,38.301-15.868c5.488,0,10.537,0.686,15.145,2.06
		c4.607,1.373,8.934,3.553,13.021,6.46V0h21.594v165.509h-21.594V159.492L395.457,159.492z M204.015,165.509V56.206h21.594v13.365
		c5.409-5.209,10.777-9.005,16.146-11.427c5.369-2.382,11.139-3.593,17.308-3.593c11.739,0,20.993,3.432,27.763,10.296
		c6.771,6.864,10.137,16.272,10.137,28.265v72.397h-21.594V98.684c0-8.843-1.843-15.384-5.569-19.583
		c-3.726-4.24-9.495-6.339-17.308-6.339c-5.568,0-10.417,1.09-14.623,3.271c-4.167,2.141-8.253,5.734-12.26,10.701v78.777H204.015
		L204.015,165.509z M157.285,156.504c-5.489,3.877-10.697,6.663-15.585,8.359c-4.887,1.695-10.136,2.543-15.785,2.543
		c-9.696,0-17.268-2.342-22.756-7.025c-5.488-4.684-8.213-11.144-8.213-19.341c0-7.712,2.964-14.496,8.934-20.351
		c5.929-5.814,14.903-10.74,26.843-14.778l25.721-8.641c0.08-0.646,0.12-1.252,0.16-1.898s0.081-1.535,0.081-2.705
		c0-6.582-1.603-11.306-4.769-14.173c-3.165-2.866-8.373-4.32-15.665-4.32c-6.01,0-12.219,1.292-18.669,3.836
		c-6.411,2.584-12.82,6.379-19.23,11.427V67.916c5.569-4.603,11.778-8.035,18.669-10.377c6.892-2.301,14.182-3.472,21.955-3.472
		c13.902,0,24.039,3.108,30.409,9.287c6.33,6.178,9.495,16.191,9.495,30.001v46.232c0,3.877,0.32,6.623,1.001,8.237
		c0.681,1.615,1.764,2.423,3.366,2.423c1.322,0,2.684-0.363,4.166-1.05c1.443-0.727,3.807-2.382,7.091-5.007v13.284
		c-3.926,3.392-7.852,5.896-11.859,7.511c-4.006,1.615-8.133,2.422-12.46,2.422c-4.166,0-7.251-0.888-9.334-2.624
		S157.565,160.301,157.285,156.504L157.285,156.504z"/>
	<path fill-rule="evenodd" clip-rule="evenodd" fill="#da194c" d="M545.492,60.712h1.639h1.719h4.75
		c2.506,0,4.549,2.048,4.549,4.549l0,0c0,2.104-1.447,3.885-3.396,4.398l3.406,6.671h-3.455l-3.33-6.52h-2.523v6.52h-3.357V60.712
		L545.492,60.712z M550.994,52.872c8.799,0,15.936,7.137,15.936,15.936c0,8.798-7.137,15.935-15.936,15.935
		s-15.936-7.137-15.936-15.935C535.059,60.009,542.195,52.872,550.994,52.872L550.994,52.872z M550.994,56.644
		c6.715,0,12.164,5.448,12.164,12.164c0,6.716-5.449,12.163-12.164,12.163c-6.717,0-12.164-5.447-12.164-12.163
		C538.83,62.091,544.277,56.644,550.994,56.644L550.994,56.644z M548.85,63.138v4.247h3.836c1.168,0,2.123-0.957,2.123-2.124l0,0
		c0-1.167-0.955-2.124-2.123-2.124H548.85L548.85,63.138z"/>
</g>
</svg>
