<svg id="Camada_1" data-name="Camada 1" xmlns="http://www.w3.org/2000/svg" viewBox="0 0 842 595"><defs><style>.cls-1,.cls-12,.cls-13,.cls-2,.cls-3,.cls-4,.cls-6,.cls-7{fill:#fff;}.cls-1,.cls-10,.cls-11,.cls-13,.cls-14,.cls-2,.cls-3,.cls-4,.cls-5,.cls-6,.cls-7,.cls-8,.cls-9{stroke:#fff;stroke-miterlimit:22.93;}.cls-1{stroke-width:4.25px;}.cls-1,.cls-10,.cls-11,.cls-12,.cls-13,.cls-14,.cls-2,.cls-3,.cls-4,.cls-5,.cls-6,.cls-7,.cls-8,.cls-9{fill-rule:evenodd;}.cls-2{stroke-width:2.74px;}.cls-3{stroke-width:0.8px;}.cls-4{stroke-width:2.83px;}.cls-5,.cls-8,.cls-9{fill:#e21d11;}.cls-5{stroke-width:5.15px;}.cls-6{stroke-width:3.15px;}.cls-7{stroke-width:1.37px;}.cls-8{stroke-width:5.1px;}.cls-9{stroke-width:5.48px;}.cls-10,.cls-11,.cls-14{fill:#e31c10;}.cls-10{stroke-width:4.89px;}.cls-11{stroke-width:4.95px;}.cls-13{stroke-width:1.43px;}.cls-14{stroke-width:5.67px;}</style></defs><path class="cls-1" d="M132.25,233.41l8.88-.56c2.3-3.44,9-10.91,12.33-14.32,3.17-3.25,3.71-3.49,9.87-3.45,20.82.13,43.95,1.6,64.33.32,24.71-.62,54.17.24,80,.24,13.07,0,26.39.07,39.41,0,6.82,0,12.82.37,19.42.57,24.25.67,49.14,1.7,73.3,1.65L484.85,220c5.84.65,26.12.39,33.07,1.34l25.13.4c-6.88,0-12.81-1.34-19.43-1.66-8.23-.4-22.73-.77-30.38-1.82-2.31-.32-7.59-.83-10.14-1-4.72-.25-11-.14-15.46-.64-13.8-1.54-32.55-1.62-46.73-1.57-20.9-.71-41.14-2.31-62.16-2.23-7.79,0-13.51-.55-21.1-.55h-86c-9.55,0-35.77-1.07-42.74.55,1.77-2.42,14.51-9.11,17.79-11.07,6.2-3.71,12.29-7,19-10.4,3.53-1.76,6-3.29,9.44-5,8.09-4,15.5-8.75,23.93-12.16,2.52-1,4-.8,4.2-3.57,12.67,0,25.69-1.62,38.31-2.22,12.93-.61,26-1.67,39.41-1.67,6.84,0,13.7,0,20.54,0l39.42,1.66c9.18,0,18.44,1.75,27.7,2.83a4,4,0,0,1,1.8.42c2,.91,2.15,2.84,4.59,3.74l37.28,13.8c13.17,5.26,26.7,12.78,39.54,18.27l18.6,10.77c2,.89,2.23,1.12,4.27.14-1-3.9-15.55-11.63-19.62-13.68-1.62-.82-2.08-1.31-3.54-2-18.42-8.85-30.5-16-50.19-23.1-6.14-2.22-14.54-5.11-20.14-8.17-6.62-3.6-34.39-6.19-44.21-6.31-10.28-.12-21.45-1.73-32.17-1.69-34.26-.1-63.39,1.48-97.15,3.89-6.32.19-13,1.85-19.2,3-2.89.54-7.8.25-8.56,3.1,5.42,0,10.91-2.22,17.76-2.22-1.77,1.23-4.84,1.93-6.74,2.69-2.64,1.06-4.43,1.77-6.95,3l-31.63,16.66c-8.81,4.47-16,9.32-24.16,14.7l-6.39,3.61c-4.11,1.59-32.36.93-38.49.93.1-.09.27-.34.32-.24l3.2-1.8c8.75-4.3,3.31-2.93,10.92-6.84a59.06,59.06,0,0,0,7-4.67c2.48-1.72,4.54-3.24,6.88-4.78l24.88-15.64c1.69-.9,3-.82,4.55-1.56,0-4.68-1.06-2.51-4.22-4.11-.94-.48-1.58-1-2.81-1.63l-2.61-1.27c-.07,0-.24-.13-.35-.21,6-.13,16.29-2.57,23.07-3.57,9.67-1.42,49.8-7.07,60.74-7l38.35-2.73c20.57-1.7,46.66-1.22,67.16-.6,3.92.12,9.51.29,13.28.6,12.8,1.06,38.59,2.47,49.08,5.32a89.37,89.37,0,0,1,9.63,3.69l9.92,4c10.62,4.23,21.67,10,32.25,14.93,9.1,4.22,18.65,8.5,26.67,14.41,6.63,4.9,14.22,8.39,21.43,12.43,2.72,1.53,6.17,3.9,9.26,4.62-1.17,1.61-.45,1.11-3.33,1.11,1,3.78,6.56,3.07,9.94,3.38l11.88,1.45c15.84,2.15,30.48,4.05,46.14,7.15,14.37,2.84,29.78,5.62,43.74,9.55,7.9,2.22,23,6.41,30.05,9.93C716.63,251.89,729,263.7,734,265c-.18,2.24-.9,2.17-1.84,4.27a28.9,28.9,0,0,0-1.49,4.62c1.76,2.62,1.44,3.14,1.89,6.43l4.94,36.7c.6,4.59-.17,11.77-.17,16.27-5.38,1.25-15.9,10.5-34.26,14-2.53.49-12.82,4.62-15.76,5.25-8.18,1.74,11.84-.73,14.8-1.21A99.74,99.74,0,0,0,734.56,340c2.31-1.34,3.11-2.5,6.14-3.3,2.24-.59,2.5-.12,3.18-1.81,3.35-8.24-2.1-37.81-4.53-47.39-1.18-4.66-3.76-11.86-1.44-15.75l2.9-4.34c.45-1.28.39-.39.43-2.34-8.08-1.88-4.17-1.5-15.72-10.93-12.87-11-41.12-19.38-57.4-22.53-14.58-2.64-29.63-6.46-44.89-9-14.19-2.33-28.32-3.38-41.35-5.28-9.82-1.43-25.61-12.69-33.92-18.82-15.29-11.28-33.1-18-50.06-26.55-3.6-1.8-6.72-3-10.35-4.64l-6.43-3c-2.22-1.6-12.18-4.55-15.42-5.69-3.77-1.31-3.08-.49-6.52-.19-2.41.21-4.6-.36-7-.71-60.64-8.87-114.54-6.58-175.5.27-21.81,2.45-44.56,5.49-66.39,9.66l-26.08,5c-4.06.88-9.46,1.51-12.55,3,1.32,2,1.52,1.66,3.93,1.23,5-.86,24.2-5.62,26.85-4.85,3.16.92,6.5,3.35,9.75,3.62v1.11c-3.11.83-32.36,20-36.73,23.23-1.68,1.25-2.61,1.77-4.34,2.88-5.45,3.48-.62,2.64-14.37,8.39-4.76,2-8,1.58-13.4,1.58h-7.22a58.36,58.36,0,0,0-7.21.56v1.11a81.38,81.38,0,0,0,10.57.56c3.82-.13,6.82.17,10-.56-.67,2.86-9.48,11-12.34,14.31-1.22,1.4-1.89,2.71-3.47,3.75Z"/><path class="cls-2" d="M156.89,331.51c0-2.68,1.58-5,4.44-5h36.09c5.75,0,4.44,6.46,4.44,12.77h-45v-7.78Zm-7.77-2.77v40h7.77v-21.1h45v21.1h7.77V329.29c0-7-6.25-11.1-13.88-11.1H162.44C155.11,318.19,149.12,323.38,149.12,328.74Z"/><path class="cls-3" d="M135.24,237.64h-5.55l-.33.81c-.83,2.51-.74,4.26-1.12,6.7-.83,5.38,0,4,1.9,7.09l6.21,12.1c-3.22,1.55-1.21-1.08-5.13,3.75a33.49,33.49,0,0,0-3.75,5.69l-24.28-4c-3.19-.61-5.31-2.35-7.36.71,1.36.65,26.9,5.55,29.42,5.55-.51,1.92-1.21,1.88-2.5,3.66-1.57,2.15-1.46,1.8-.28,3.56-4.45,2.13-2.53-.16-3.41,8.24a72.45,72.45,0,0,0,3.2,30.83c1.88,5.59,4,12.19,6.87,16.45,2.07,3.08,7.38,11.56,10,13.31,2.57-.59,6-2.33,6.66-5-.71-.85-1-3-5.55,0-3.64-6.88-8.23-21.13-10.76-28.66-3.09-9.19-2.83-20.85-3.08-31.34-.06-2.73-.08-2.24-1.15-3.84a12.32,12.32,0,0,0,8.33-5.55c5.48,1.27,11.58,2.21,17.16,3.37,4.57.95,12.92,3.74,17.26,2.73v-1.11c-2.51-.58-4.67-1.53-7.15-2.29-4.45-1.37-20.33-5.13-24.5-5.48.52-1.93,3-5.15,4.41-7.8,1-1.95.08-1.61,2.25-2.19,0-3.7-1.52-4.85-2.77-7.22,3.7.86,9.54,4.23,10.93,4.64,1.63.49,3.78-.54,6-1.07,3.72-.9,3.15-.84,4.8-3.53,2.51-4.09,15-16.08,11.62-19.47-1.87-.89-5.47.18-7,1.35L153,255.46c-6.24-3.3-9.55-3.26-14.36-5.1-5.12-2-2,0-4.52-1C134.13,247.07,134.65,239,135.24,237.64Z"/><path class="cls-4" d="M217,358.72a9.81,9.81,0,0,0,10,10h29c6.61,0,10.45-4.49,10.45-12.21v-25h-7.12v26.65a2,2,0,0,1-1.9,2.22H226c-1.53,0-2.37-2-2.37-3.88v-25H217Z"/><path class="cls-4" d="M343.11,370.93c-13.86,0-23.87-10.87-23.87-21.65V346c0-11,10.67-21.65,21.65-21.65,8.14,0,12.71,1.28,18.47,7.06,8.9,8.94,8.66,23.65-.28,32.79a22.18,22.18,0,0,1-16,6.78Zm-28.87-23.87a28.69,28.69,0,0,0,28.31,28.87c15.25,0,28.31-12.32,28.31-29.43,0-14-12.64-27.2-26.64-27.2-9.36,0-15.67,1.93-22.09,8.45A29.7,29.7,0,0,0,314.24,347.06Z"/><path class="cls-4" d="M276.24,279.78,398,285.22c52.38,1.76,97.49,5.77,148.23,6,7.31-.09,6.33,1.39,7.92-.68l-136-8.24c-5.53-.45-11.89.17-17.3-.4l-43.72-1.63c-3.55-.1-6.27.12-9.21-.2-5-.53-26.24-.39-34.85-1.11-2.25-.18-5.76-.14-8.41-.42l-26.76-.91C276.87,277.69,276.45,278.88,276.24,279.78Z"/><path class="cls-5" d="M507.74,329.85v27.2c0,6.09,3.4,11.1,8.87,11.1h42.76v-3.33H517.13c-7.65,0-5.74-10.44-5.74-19.43h46.42c1.91,0,1.56-1.18,1.56-3.88h-48c0-9-1.91-19.43,5.74-19.43h42.24v-3.33H516.61C511.19,318.75,507.74,323.92,507.74,329.85Z"/><path class="cls-6" d="M276.1,357.49c0,14.21,20,11.2,33.86,11.2v-8.84H288.24a2.37,2.37,0,0,1-2.56-2.36V338h20.44v-8.84H285.68v-8.85H276.1Z"/><path class="cls-7" d="M689.21,411.58h87.06c-3.54-4.28-1-5.05-7.58-5H688A9,9,0,0,1,689.21,411.58Z"/><path class="cls-7" d="M688,400.5h83.07c-1-1.95-2.32-2.54-2.79-5H688C688.16,398,688.83,398.11,688,400.5Z"/><polygon class="cls-8" points="442.79 368.15 445.89 368.15 445.89 345.39 491.91 345.39 491.91 368.15 495.53 368.15 495.53 318.75 491.91 318.75 491.91 341.51 445.89 341.51 445.89 318.75 442.79 318.75 442.79 368.15"/><path class="cls-9" d="M634.87,368.15h3.89V345.39H659.3c2.33,0,3.08,1.09,4.31,2.36L684.87,367c2.33,1.71,2.3,1.14,6.07,1.14L664.3,343.73l9.6-9.28c3.15-2.63,15.64-13.61,17-15.7-4.18,0-4.7-.57-9.31,4l-10.82,9.71c-12,11.63-7.88,9-32,9V318.75h-3.89Z"/><path class="cls-10" d="M379,330.4v26.1c0,6.16,3,11.65,8.42,11.65H428v-3.33H387.87c-2.9,0-5.45-2.86-5.45-6.1V328.18c0-3.24,2.55-6.1,5.45-6.1H428v-3.33H386.88c-2.06,0-4.77,2-5.77,3.52A15.07,15.07,0,0,0,379,330.4Z"/><path class="cls-11" d="M571.59,328.18v30.54c0,4.48,3.68,9.43,7.51,9.43h41.61v-3.33h-40.6c-3.21,0-5.52-3.42-5.52-7.21V329.29c0-3.68,2.34-7.21,5.52-7.21h40.6v-3.33h-40.6C575.53,318.75,571.59,323.11,571.59,328.18Z"/><path class="cls-12" d="M355.63,384.81c.85,3.61,3.78,8.75,5.32,12.45l11.15,25.48c2.47,5.13,3.93,11.48,6.85,11.48,2.57,0,5.61-1.61,6.23-3.77.52-1.82-8.19-18.47-9.37-20.85-2.7-5.39-11.72-24.06-14.07-27.57C358.15,382.33,357.79,383.36,355.63,384.81Z"/><path class="cls-13" d="M689.21,420.7h93.16c-.41-.74-2.51-2.77-3.34-2.77H689.21Z"/><path class="cls-12" d="M679.84,260.46c.07,3.1,1.39,4.1,2.85,6s2.48,3.25,3.88,5c.7.87,1.31,1.58,2,2.45,1.79,2.32,2.1,4.3,6.7,7.18,5,3.14,15.8,4,22.5,4.75,2.42.26,5.33-1,7.6-1.54-.09-3.94-1.71-3.32-5.15-3.74-3.12-.37-4.88-.47-8.08-.8-13.33-1.36-12.38-3.32-17.72-8.93l-8.38-9.4C683,259,683.88,259.51,679.84,260.46Z"/><path class="cls-12" d="M703.16,334.29c0,1.44.37.57.55,2.78,4.8,1.11,8,1.05,10.48-5.07,1.12-2.82,5.61-14.59,8.66-15.76.95-.36,4.31-.45,5.41-.7,1.91-.43,3.64-.82,5.43-1.24-1.45-5.41-14.59-2-18.09-.87C709.35,315.52,703.16,332.18,703.16,334.29Z"/><path class="cls-12" d="M351.75,374.82l3.88,8.33c1.62-.86,2.52-1.62,5-1.67-.27-3.26-2.6-5.18-3.33-8.33C354.23,373.41,354.82,374.56,351.75,374.82Z"/><path class="cls-12" d="M72.39,384.76h12l8.41,30.48,8.28-30.48h11.7L99,427.12H86.48L72.39,384.76Zm44.65,0H128.6v42.36H117V384.76Zm17.83,28.35,10.94-.78a10,10,0,0,0,1.45,4.59,5.82,5.82,0,0,0,5.09,2.56,5.14,5.14,0,0,0,3.79-1.31,4.1,4.1,0,0,0,.08-6c-.84-.87-2.8-1.68-5.89-2.46q-7.58-1.92-10.8-5.13a11,11,0,0,1-3.26-8.17,12.15,12.15,0,0,1,1.67-6.15,11.45,11.45,0,0,1,5-4.57,21,21,0,0,1,9.17-1.65q7.15,0,10.9,3t4.47,9.62l-10.84.73a7.05,7.05,0,0,0-1.82-4.19,5.33,5.33,0,0,0-3.83-1.31,4.27,4.27,0,0,0-3,1,3.11,3.11,0,0,0-1,2.36,2.47,2.47,0,0,0,.82,1.81c.53.56,1.82,1.08,3.85,1.56,5,1.23,8.64,2.49,10.81,3.75a11.94,11.94,0,0,1,4.76,4.69,13.13,13.13,0,0,1,1.48,6.27,14.86,14.86,0,0,1-2,7.52,12.93,12.93,0,0,1-5.55,5.21,20,20,0,0,1-9,1.78q-9.51,0-13.17-4.17a17.45,17.45,0,0,1-4.14-10.55Zm37-28.35h35.07v10.47H195.17v31.89H183.65V395.23H171.87V384.76Zm37,21.21q0-10.38,5.09-16.14t14.18-5.78q9.31,0,14.36,5.67t5,15.9a29,29,0,0,1-2.2,12.17,17.06,17.06,0,0,1-6.37,7.39,18.94,18.94,0,0,1-10.38,2.65,21.52,21.52,0,0,1-10.45-2.28,16.87,16.87,0,0,1-6.7-7.23A26.56,26.56,0,0,1,208.87,406Zm11.52,0q0,6.4,2.1,9.2a7.33,7.33,0,0,0,11.49.06c1.36-1.83,2-5.1,2-9.85q0-6-2.13-8.72a6.87,6.87,0,0,0-5.77-2.76,6.7,6.7,0,0,0-5.62,2.8c-1.41,1.86-2.11,5-2.11,9.27Zm33.5,21.12V384.76H273.1a24.6,24.6,0,0,1,8.17,1,8.91,8.91,0,0,1,4.56,3.86,14.55,14.55,0,0,1,.4,13,11,11,0,0,1-3.65,4.16,12.75,12.75,0,0,1-4.05,1.68,11,11,0,0,1,3,1.56,13.22,13.22,0,0,1,1.84,2.23,16.59,16.59,0,0,1,1.61,2.63l5.6,12.24h-13l-6.16-12.92a9.79,9.79,0,0,0-2.08-3.26,4.51,4.51,0,0,0-2.83-1h-1v17.16ZM265.46,402h4.87a15.27,15.27,0,0,0,3.06-.58,3,3,0,0,0,1.87-1.33,4.34,4.34,0,0,0,.73-2.46,4.18,4.18,0,0,0-1.15-3.16c-.76-.74-2.2-1.1-4.31-1.1h-5.07V402Zm29.28-17.21h11.57v42.36H294.74V384.76Zm42.76,35.38H324.44l-1.88,7H310.8l14-42.36h12.62l14,42.36H339.37l-1.87-7ZM335.06,411,331,395.74,326.9,411Zm51.13-26.21h12.05l8.4,30.48,8.29-30.48h11.7l-13.86,42.36H400.29l-14.1-42.36Zm44.18,0h30.85v9.05H441.94v6.74h17.87v8.64H441.94v8.34h19.85v9.59H430.37V384.76Zm38.1,0H480v42.36H468.47V384.76Zm44.67,25,10.11,3.46A22.34,22.34,0,0,1,520,421.3a14.3,14.3,0,0,1-5.43,4.88,18.34,18.34,0,0,1-8.26,1.65,21.54,21.54,0,0,1-10-2,16.75,16.75,0,0,1-6.65-7.06c-1.87-3.36-2.8-7.68-2.8-12.92q0-10.5,4.92-16.15t13.95-5.64q7.05,0,11.09,3.23c2.68,2.16,4.69,5.47,6,10l-10.16,2.55A10.7,10.7,0,0,0,511.6,397a7,7,0,0,0-2.37-2.29,6.07,6.07,0,0,0-3.14-.81,6.61,6.61,0,0,0-6,3.57c-1.05,1.76-1.58,4.54-1.58,8.32q0,7,1.89,9.64a6.16,6.16,0,0,0,5.3,2.61,6,6,0,0,0,5-2.11,14,14,0,0,0,2.46-6.12Zm40-25h11.51V410a24.1,24.1,0,0,1-1,7.08,15.75,15.75,0,0,1-3.23,5.84,13.15,13.15,0,0,1-4.61,3.51,21,21,0,0,1-8.07,1.41,44.5,44.5,0,0,1-5.94-.44,14.14,14.14,0,0,1-5.39-1.71,13.91,13.91,0,0,1-4-3.65,14.13,14.13,0,0,1-2.46-4.88,28.45,28.45,0,0,1-1.06-7.16V384.76h11.51v25.83a8,8,0,0,0,1.69,5.4,6.58,6.58,0,0,0,9.34,0,8,8,0,0,0,1.69-5.43V384.76Zm19.12,0h11.52V416.7h18v10.42H572.22V384.76Zm57.71,35.38H616.87l-1.88,7H603.23l14-42.36h12.62l14,42.36H631.8l-1.87-7ZM627.49,411l-4.07-15.23L619.33,411Zm20.18,16.15V384.76h19.21a24.5,24.5,0,0,1,8.16,1,8.84,8.84,0,0,1,4.56,3.86,14.55,14.55,0,0,1,.4,13,11,11,0,0,1-3.65,4.16,12.68,12.68,0,0,1-4,1.68,10.76,10.76,0,0,1,3,1.56,12.74,12.74,0,0,1,1.84,2.23,16.59,16.59,0,0,1,1.61,2.63l5.6,12.24h-13l-6.15-12.92a9.94,9.94,0,0,0-2.09-3.26,4.49,4.49,0,0,0-2.83-1h-1v17.16ZM659.23,402h4.88a15.22,15.22,0,0,0,3-.58,3,3,0,0,0,1.87-1.33,4.27,4.27,0,0,0,.73-2.46,4.14,4.14,0,0,0-1.15-3.16c-.76-.74-2.19-1.1-4.3-1.1h-5.08Z"/><path class="cls-14" d="M146.79,234.18c-18.79,1.71-37.56,3.06-56.37,4.53-2.66-.06-6.72,1-7.83,2.7l82.31-6.74c12.73-.9,25.93-.7,38.19-1.72,9.86-.43,23.49,0,32.69-1.17l86.12-1.11c11.49,0,23.11.54,34.71.53l59,2.05c2.9.45,5.93-.13,8.85.23l25.24,1c3.53,0,4.79.58,8,.58l33.8,1.56c16.24,2,33,.8,49.37,3.27,7.61,1.14,23.94,1.87,32.44,3.1,4.85.69,10.21.92,15.59,1.67,2,.29,5.3.85,7.69,1,9.37.44,31.35,4.45,39.77,5l15.07,2.26c5,.58,10.14,1.72,15.31,2.57l35.49,5.45c-3.67,0-35.63-7.05-41.32-7.94-2.7-.42-5-.8-7.49-1.17L607.22,245c-5.14-.83-10-1.11-15.54-1.73l-15.83-2c-9.1-1.33-56.55-5.84-64.26-5.75-13.19.16-27.45-2-41.28-2.19-19.2-.26-39-2.07-58.35-2.79-5.72,0-10.84-.21-16.6-.55L361.65,229c-6,0-10.74-.56-17.11-.55-12,0-22.24-.55-34.22-.54-34.36,0-68.22,2.27-102.13,2.35C187.42,230.26,167.27,233.18,146.79,234.18Z"/></svg>